<svg xmlns="http://www.w3.org/2000/svg" width="118" height="95" viewBox="0 0 118 95" fill="none">
    <path d="M79.3171 26.3C70.9571 26.35 62.4571 25.97 54.4971 23.75C46.6871 21.58 39.5571 17.38 33.1371 12.52C28.9471 9.34997 25.1371 6.83997 19.7171 7.20997C14.4062 7.49091 9.32634 9.47168 5.22709 12.86C-1.69291 18.86 -0.642906 30.09 2.11709 37.96C6.22709 49.86 18.9071 58.06 29.6471 63.43C42.0571 69.63 55.6471 73.23 69.3571 75.3C81.3571 77.12 96.7271 78.44 107.107 70.62C116.647 63.43 119.267 47.02 116.927 35.93C116.361 32.6556 114.618 29.7006 112.027 27.62C105.327 22.73 95.3371 26 87.8071 26.16C85.0071 26.22 82.2271 26.29 79.3171 26.3Z" fill="#272933"/>
    <path d="M103.007 70.7V75" stroke="#4A5059" stroke-linecap="round" stroke-linejoin="round"/>
    <path d="M100.857 72.85H105.157" stroke="#4A5059" stroke-linecap="round" stroke-linejoin="round"/>
    <path d="M28.167 12.1799V16.4799" stroke="#4A5059" stroke-linecap="round" stroke-linejoin="round"/>
    <path d="M26.0171 14.33H30.3171" stroke="#4A5059" stroke-linecap="round" stroke-linejoin="round"/>
    <path d="M100.157 12.57C100.698 12.57 101.137 12.1312 101.137 11.59C101.137 11.0487 100.698 10.61 100.157 10.61C99.6158 10.61 99.177 11.0487 99.177 11.59C99.177 12.1312 99.6158 12.57 100.157 12.57Z" fill="#4A5059"/>
    <path d="M31.4971 43.8999C32.0383 43.8999 32.4771 43.4612 32.4771 42.9199C32.4771 42.3787 32.0383 41.9399 31.4971 41.9399C30.9559 41.9399 30.5171 42.3787 30.5171 42.9199C30.5171 43.4612 30.9559 43.8999 31.4971 43.8999Z" fill="#4A5059"/>
    <path d="M63.0571 94.71C83.2983 94.71 99.7071 93.6892 99.7071 92.43C99.7071 91.1708 83.2983 90.15 63.0571 90.15C42.8159 90.15 26.4071 91.1708 26.4071 92.43C26.4071 93.6892 42.8159 94.71 63.0571 94.71Z" fill="#272933"/>
    <path d="M79.3371 71.51L61.5371 60.86C60.9321 60.4999 60.2411 60.3098 59.5371 60.3098C58.8331 60.3098 58.1421 60.4999 57.5371 60.86L40.1571 71.46C39.5644 71.8213 38.8859 72.0179 38.1919 72.0295C37.4978 72.041 36.8132 71.8671 36.2088 71.5256C35.6044 71.1842 35.1021 70.6876 34.7537 70.0872C34.4053 69.4867 34.2235 68.8042 34.2271 68.11V4.4C34.2297 3.36647 34.6415 2.37602 35.3723 1.6452C36.1031 0.914378 37.0936 0.50264 38.1271 0.5H81.3771C82.4114 0.5 83.4034 0.910893 84.1348 1.64228C84.8662 2.37368 85.2771 3.36566 85.2771 4.4V68.16C85.2818 68.8557 85.1002 69.54 84.7514 70.1419C84.4025 70.7438 83.899 71.2414 83.293 71.5831C82.687 71.9249 82.0007 72.0983 81.3051 72.0855C80.6095 72.0726 79.93 71.8739 79.3371 71.51Z" fill="#2D333E" stroke="#4A5059" stroke-miterlimit="10"/>
    <path d="M86.927 79.29L68.347 68.14C67.7104 67.7554 66.9808 67.5521 66.237 67.5521C65.4932 67.5521 64.7636 67.7554 64.127 68.14L45.987 79.14C45.3709 79.5197 44.6645 79.7278 43.9409 79.7428C43.2174 79.7577 42.503 79.579 41.8717 79.2251C41.2404 78.8713 40.7152 78.3551 40.3504 77.73C39.9857 77.1049 39.7946 76.3937 39.797 75.67V9.23003C39.797 8.1506 40.2258 7.11538 40.9891 6.35211C41.7524 5.58884 42.7876 5.16003 43.867 5.16003H89.017C90.0965 5.16003 91.1317 5.58884 91.8949 6.35211C92.6582 7.11538 93.087 8.1506 93.087 9.23003V75.8C93.0866 76.5197 92.8954 77.2263 92.5328 77.848C92.1703 78.4696 91.6494 78.984 91.0233 79.3388C90.3972 79.6935 89.6882 79.8759 88.9686 79.8674C88.249 79.8588 87.5445 79.6596 86.927 79.29Z" fill="#2D333E" stroke="#4A5059" stroke-miterlimit="10"/>
    <path d="M66.4471 51.68C76.7803 51.68 85.1571 43.3033 85.1571 32.97C85.1571 22.6368 76.7803 14.26 66.4471 14.26C56.1138 14.26 47.7371 22.6368 47.7371 32.97C47.7371 43.3033 56.1138 51.68 66.4471 51.68Z" fill="#2D333E" stroke="#4A5059" stroke-miterlimit="10"/>
    <path d="M67.3971 19.79L70.8371 26.79L78.5171 27.86C78.7155 27.8863 78.9024 27.9683 79.0562 28.0964C79.21 28.2245 79.3243 28.3935 79.3861 28.5839C79.4478 28.7743 79.4543 28.9783 79.405 29.1723C79.3556 29.3663 79.2523 29.5423 79.1071 29.68L73.5471 35.1L74.8671 42.75C74.9005 42.946 74.8781 43.1475 74.8024 43.3313C74.7268 43.5152 74.6009 43.6741 74.4393 43.7899C74.2776 43.9056 74.0867 43.9736 73.8882 43.986C73.6898 43.9984 73.4919 43.9547 73.3171 43.86L66.4471 40.25L59.5671 43.86C59.3933 43.9511 59.1978 43.9922 59.0021 43.9788C58.8064 43.9653 58.6182 43.8979 58.4586 43.7838C58.299 43.6698 58.1741 43.5138 58.0979 43.333C58.0218 43.1522 57.9972 42.9539 58.0271 42.76L59.3371 35.11L53.7771 29.69C53.6288 29.5528 53.5228 29.376 53.4716 29.1805C53.4204 28.9851 53.4262 28.7791 53.4882 28.5867C53.5502 28.3944 53.6658 28.2239 53.8215 28.0951C53.9773 27.9663 54.1665 27.8848 54.3671 27.86L62.0471 26.74L65.4871 19.74C65.5809 19.5656 65.7212 19.4206 65.8926 19.3212C66.0639 19.2218 66.2595 19.1719 66.4575 19.1771C66.6555 19.1823 66.8481 19.2423 67.014 19.3506C67.1799 19.4588 67.3125 19.6109 67.3971 19.79Z" fill="#4A5059" stroke="#4A5059" stroke-miterlimit="10"/>
</svg>